<svg xmlns="http://www.w3.org/2000/svg" viewBox="0 0 322.58 166.03"><defs><style>.cls-1{fill:none;stroke-width:4px;}.cls-1,.cls-2{stroke:#1d1d1b;stroke-miterlimit:10;}.cls-2,.cls-3{fill:#1d1d1b;}.cls-3{font-size:17.41px;font-family:Righteous-Regular, Righteous;}</style></defs><g id="Layer_3" data-name="Layer 3"><path class="cls-1" d="M286,362.09s35.93-67.48,47.9-86.35S452.22,234.6,477.07,231.2c32.4-4.44,56.23-8.23,56.23-8.23l-55,33.84s92.33-24.3,101.36-28.24c0,0-118.35,119.29-137,130.68S286,362.09,286,362.09Z" transform="translate(-282.77 -219.42)"/></g><g id="Layer_6" data-name="Layer 6"><path class="cls-2" d="M346.44,266.39s5.07,39.38,56.49,40.19,56.47-72.35,56.47-72.35l-50.14,11.2-52.57,16.33Z" transform="translate(-282.77 -219.42)"/></g><g id="Layer_4" data-name="Layer 4"><path class="cls-1" d="M290.53,353.63s124.72,5.74,144.65-3.8,124-114.95,124-114.95" transform="translate(-282.77 -219.42)"/><text class="cls-3" x="-282.77" y="-219.42"><tspan x="290.84" y="41.93">I</tspan><tspan x="263.6" y="62.83">M</tspan><tspan x="242.42" y="83.73">U</tspan><tspan x="220.16" y="104.62">R</tspan><tspan x="201.03" y="125.52">I</tspan><tspan x="176.92" y="146.42">K</tspan></text><text x="-282.77" y="-219.42"/></g></svg>